<?xml version="1.0" encoding="UTF-8" standalone="no"?>
<svg
   xmlns:dc="http://purl.org/dc/elements/1.1/"
   xmlns:cc="http://creativecommons.org/ns#"
   xmlns:rdf="http://www.w3.org/1999/02/22-rdf-syntax-ns#"
   xmlns:svg="http://www.w3.org/2000/svg"
   xmlns="http://www.w3.org/2000/svg"
   xmlns:sodipodi="http://sodipodi.sourceforge.net/DTD/sodipodi-0.dtd"
   xmlns:inkscape="http://www.inkscape.org/namespaces/inkscape"
   width="422"
   height="80"
   viewBox="0 0 111.65417 21.166667"
   version="1.1"
   id="svg4885"
   inkscape:version="1.0.2 (e86c870879, 2021-01-15, custom)"
   sodipodi:docname="chumtech-logo.svg">
  <defs
     id="defs4879" />
  <sodipodi:namedview
     id="base"
     pagecolor="#ffffff"
     bordercolor="#666666"
     borderopacity="1.0"
     inkscape:pageopacity="0.0"
     inkscape:pageshadow="2"
     inkscape:zoom="1.6378906"
     inkscape:cx="97.668336"
     inkscape:cy="100.98601"
     inkscape:document-units="px"
     inkscape:current-layer="g4877"
     showgrid="false"
     fit-margin-top="0"
     fit-margin-left="0"
     fit-margin-right="0"
     fit-margin-bottom="0"
     inkscape:window-width="2560"
     inkscape:window-height="1361"
     inkscape:window-x="2091"
     inkscape:window-y="-9"
     inkscape:window-maximized="1"
     inkscape:document-rotation="0"
     units="px" />
  <metadata
     id="metadata4882">
    <rdf:RDF>
      <cc:Work
         rdf:about="">
        <dc:format>image/svg+xml</dc:format>
        <dc:type
           rdf:resource="http://purl.org/dc/dcmitype/StillImage" />
        <dc:title />
      </cc:Work>
    </rdf:RDF>
  </metadata>
  <g
     inkscape:label="レイヤー 1"
     inkscape:groupmode="layer"
     id="layer1"
     transform="translate(-38.798404,-157.91005)">
    <g
       style="display:inline"
       id="g4877"
       transform="matrix(0.24246898,0,0,0.24246898,89.00643,219.53028)">
      <g
         id="g4853"
         style="display:inline"
         transform="matrix(3.9258277,0,0,3.9258277,554.1972,-2601.5525)">
        <g
           id="g871">
          <g
             aria-label="ChumTech"
             style="font-style:normal;font-variant:normal;font-weight:normal;font-stretch:normal;font-size:16.9333px;line-height:1.25;font-family:'Corporate Logo Maru';-inkscape-font-specification:'Corporate Logo Maru';letter-spacing:-0.267229px;word-spacing:-0.407458px;fill:#000000;fill-opacity:1;stroke:none;stroke-width:0.264583"
             id="g4843"
             transform="translate(-68.952458,12.95915)">
            <g
               id="g4841"
               transform="translate(66.507335,3.1786594)">
              <g
                 id="g4839">
                <path
                   inkscape:connector-curvature="0"
                   d="m -162.46142,593.22429 q 0,2.25723 1.06109,3.51124 1.08039,1.23472 2.8553,1.23472 1.58199,0 3.39549,-0.63665 v 2.85529 q -1.79421,0.44373 -3.80063,0.44373 -3.24115,0 -5.09323,-1.90996 -1.85209,-1.90996 -1.85209,-5.49837 0,-3.51124 1.79421,-5.45979 1.7942,-1.94854 5.01606,-1.94854 2.08359,0 3.76204,0.46302 v 2.87458 q -1.83279,-0.61736 -3.3569,-0.61736 -1.7942,0 -2.79742,1.19614 -0.98392,1.19614 -0.98392,3.49195 z"
                   style="font-style:normal;font-variant:normal;font-weight:normal;font-stretch:normal;font-size:19.7556px;font-family:'Corporate Logo Bold';-inkscape-font-specification:'Corporate Logo Bold, ';letter-spacing:-0.267229px;word-spacing:-0.407458px;stroke-width:0.264583"
                   id="path4825" />
                <path
                   inkscape:connector-curvature="0"
                   d="m -150.1275,585.62303 v 5.63342 h 0.0386 q 1.40836,-1.2926 2.97105,-1.2926 1.8135,0 2.60449,1.0418 0.791,1.04179 0.791,3.70416 v 5.72989 h -3.1061 v -5.32474 q 0,-1.58199 -0.30868,-2.10289 -0.30868,-0.5209 -1.15755,-0.5209 -0.67524,0 -1.25402,0.59807 -0.57877,0.57878 -0.57877,1.23472 v 6.11574 h -3.20256 v -14.81667 z"
                   style="font-style:normal;font-variant:normal;font-weight:normal;font-stretch:normal;font-size:19.7556px;font-family:'Corporate Logo Bold';-inkscape-font-specification:'Corporate Logo Bold, ';letter-spacing:-0.267229px;word-spacing:-0.407458px;stroke-width:0.264583"
                   id="path4827" />
                <path
                   inkscape:connector-curvature="0"
                   d="m -141.57804,590.17607 h 3.10609 v 5.96139 q 0,1.13826 0.30868,1.5627 0.32798,0.42443 1.08039,0.42443 0.69453,0 1.25401,-0.55948 0.57878,-0.55948 0.57878,-1.21543 v -6.17361 h 3.20256 v 10.26363 h -3.04822 l -0.0386,-1.3119 h -0.0386 q -1.27331,1.50482 -3.1061,1.50482 -1.73633,0 -2.52732,-0.96462 -0.7717,-0.96463 -0.7717,-3.31832 z"
                   style="font-style:normal;font-variant:normal;font-weight:normal;font-stretch:normal;font-size:19.7556px;font-family:'Corporate Logo Bold';-inkscape-font-specification:'Corporate Logo Bold, ';letter-spacing:-0.267229px;word-spacing:-0.407458px;stroke-width:0.264583"
                   id="path4829" />
                <path
                   inkscape:connector-curvature="0"
                   d="m -129.69098,590.17607 h 2.95176 l 0.0772,1.31189 h 0.0386 q 1.17684,-1.52411 2.70095,-1.52411 0.90675,0 1.44694,0.34727 0.54019,0.32797 1.00321,1.17684 h 0.0386 q 1.36977,-1.52411 2.85529,-1.52411 1.67845,0 2.43086,0.90675 0.75241,0.88746 0.75241,3.04822 v 6.52088 h -3.12539 v -6.32795 q 0,-1.06109 -0.23151,-1.40836 -0.23151,-0.34727 -0.88746,-0.34727 -0.46302,0 -0.88745,0.38586 -0.42444,0.36655 -0.42444,0.73311 v 6.96461 h -3.12539 v -6.32795 q 0,-1.06109 -0.23151,-1.40836 -0.21222,-0.34727 -0.86816,-0.34727 -0.44373,0 -0.88746,0.38586 -0.44373,0.36655 -0.44373,0.73311 v 6.96461 h -3.18327 z"
                   style="font-style:normal;font-variant:normal;font-weight:normal;font-stretch:normal;font-size:19.7556px;font-family:'Corporate Logo Bold';-inkscape-font-specification:'Corporate Logo Bold, ';letter-spacing:-0.267229px;word-spacing:-0.407458px;stroke-width:0.264583"
                   id="path4831" />
                <path
                   inkscape:connector-curvature="0"
                   d="m -104.56988,586.00888 v 2.79742 h -3.81992 v 11.6334 h -3.43407 v -11.6334 h -3.81993 v -2.79742 z"
                   style="font-style:normal;font-variant:normal;font-weight:normal;font-stretch:normal;font-size:19.7556px;font-family:'Corporate Logo Bold';-inkscape-font-specification:'Corporate Logo Bold, ';letter-spacing:-0.267229px;word-spacing:-0.407458px;stroke-width:0.264583"
                   id="path4833" />
                <path
                   inkscape:connector-curvature="0"
                   d="m -94.213511,595.30788 q 0,-2.5852 1.311893,-3.95497 1.311892,-1.38906 3.762044,-1.38906 1.678451,0 3.260439,0.36656 v 2.45015 q -1.446941,-0.42444 -2.758833,-0.42444 -1.13826,0 -1.678451,0.71383 -0.54019,0.69453 -0.54019,2.23793 0,1.58199 0.578776,2.25723 0.578776,0.67524 1.83279,0.67524 1.311893,0 2.720248,-0.42444 v 2.43086 q -1.620573,0.38585 -3.221854,0.38585 -2.546614,0 -3.916384,-1.33118 -1.350478,-1.35048 -1.350478,-3.99356 z"
                   style="font-style:normal;font-variant:normal;font-weight:normal;font-stretch:normal;font-size:19.7556px;font-family:'Corporate Logo Bold';-inkscape-font-specification:'Corporate Logo Bold, ';letter-spacing:-0.267229px;word-spacing:-0.407458px;stroke-width:0.264583"
                   id="path4835" />
                <path
                   inkscape:connector-curvature="0"
                   d="m -80.816384,585.62303 v 5.63342 h 0.03858 q 1.408355,-1.2926 2.971051,-1.2926 1.813498,0 2.604492,1.0418 0.790994,1.04179 0.790994,3.70416 v 5.72989 h -3.106098 v -5.32474 q 0,-1.58199 -0.308681,-2.10289 -0.30868,-0.5209 -1.157552,-0.5209 -0.675239,0 -1.254015,0.59807 -0.578776,0.57878 -0.578776,1.23472 v 6.11574 h -3.202561 v -14.81667 z"
                   style="font-style:normal;font-variant:normal;font-weight:normal;font-stretch:normal;font-size:19.7556px;font-family:'Corporate Logo Bold';-inkscape-font-specification:'Corporate Logo Bold, ';letter-spacing:-0.267229px;word-spacing:-0.407458px;stroke-width:0.264583"
                   id="path4837" />
              </g>
            </g>
          </g>
          <g
             id="g4851"
             transform="translate(51.592087,52.814648)">
            <g
               style="font-style:normal;font-variant:normal;font-weight:normal;font-stretch:normal;font-size:16.9333px;line-height:1.25;font-family:'Corporate Logo Maru';-inkscape-font-specification:'Corporate Logo Maru';letter-spacing:-0.267229px;word-spacing:-0.407458px;display:inline;opacity:1;fill:#000000;fill-opacity:1;stroke:none;stroke-width:0.264583"
               id="g4849"
               transform="translate(-42.455779,-9.4693465)">
              <g
                 id="g4847"
                 transform="rotate(60,-112.86352,567.84176)">
                <path
                   style="opacity:1;fill:#000000;fill-opacity:1;stroke:none;stroke-width:2.79941;stroke-linecap:square;stroke-linejoin:round;stroke-miterlimit:4;stroke-dasharray:none;stroke-dashoffset:0;stroke-opacity:1;paint-order:normal"
                   d="m -116.66815,562.35374 c -1.11405,0.62152 -1.80893,1.7685 -2.08438,3.44048 -0.2655,1.61171 -0.0113,2.91801 0.76239,3.9188 0.76096,0.99867 1.99177,1.63794 3.69233,1.91805 1.71324,0.28224 3.09873,0.0219 4.15657,-0.78151 1.04512,-0.80548 1.71364,-2.09668 2.00631,-3.87336 0.17768,-1.07872 0.21272,-2.23947 0.10467,-3.48257 l -2.26515,-0.37315 c 0.16317,1.30431 0.18527,2.31808 0.0661,3.04144 -0.15258,0.92644 -0.43081,1.58464 -0.83398,1.97444 -0.41584,0.38771 -1.01783,0.56207 -1.8066,0.52335 l 1.06894,-6.49117 c -0.35967,-0.11138 -0.67231,-0.18946 -0.9389,-0.23304 -1.63591,-0.26948 -2.94534,-0.13014 -3.92833,0.41822 z m 0.77307,1.75136 c 0,0 1.23258,0.15203 1.6474,0.55378 0.41462,0.40189 0.47134,1.33225 0.40712,1.72215 -0.069,0.41908 -0.37505,1.35915 -0.91389,1.60349 -0.56765,0.27839 -1.62318,0.0194 -1.62318,0.0194 0.0185,-0.1123 0.0496,-0.37269 0.0812,-0.63763 a 1.3550419,1.3550419 0 0 0 1.25384,-0.0514 1.3550419,1.3550419 0 0 0 0.49595,-1.85089 1.3550419,1.3550419 0 0 0 -1.45367,-0.64715 c 0.0444,-0.35735 0.0822,-0.62976 0.1052,-0.71175 z"
                   id="path4845"
                   inkscape:connector-curvature="0" />
              </g>
            </g>
          </g>
        </g>
      </g>
      <g
         transform="matrix(1.9805854,0,0,1.9805854,34.349572,-403.64052)"
         id="g4875"
         style="display:inline;fill:#ffffff;stroke:#000000;stroke-width:5.29167;stroke-miterlimit:4;stroke-dasharray:none">
        <g
           style="opacity:0.607;fill:#c8ab37;stroke:#000000;stroke-width:0;stroke-miterlimit:4;stroke-dasharray:none"
           transform="matrix(1.3161243,0.36292103,-0.3526544,1.3544399,349.43796,-316.62224)"
           id="g4857">
          <g
             id="g4855"
             transform="translate(-222.66942,-276.23866)" />
        </g>
        <g
           transform="matrix(0.3273828,0,0,0.3273828,-97.736032,134.24276)"
           id="g4873">
          <path
             sodipodi:nodetypes="cssccssscsccc"
             inkscape:connector-curvature="0"
             id="path4859"
             d="m 51.943262,640.38422 c -14.557177,0.22732 -29.003505,2.78419 -42.7678103,7.56761 -0.035857,0.0123 -0.075863,0.0265 -0.1185982,0.0413 -0.3230641,0.11294 -0.8009992,0.2819 -0.8009992,0.2819 v 0 c -0.034353,0.17368 -0.067627,0.34757 -0.099817,0.52158 -0.00949,0.0512 -0.018887,0.1026 -0.028192,0.15397 -0.00349,0.0197 -0.00698,0.0386 -0.010416,0.0578 -0.4473533,2.48771 -0.6741686,5.00676 -0.677652,7.52885 0.023143,24.08474 19.9735077,43.36765 44.5603937,43.06954 24.586888,-0.29802 44.49974,-20.06424 44.476598,-44.14895 -0.01461,-2.77516 -0.299643,-5.53955 -0.851224,-8.25562 -14.043755,-4.64427 -28.807703,-6.94868 -43.68227,-6.81799 z"
             style="display:inline;opacity:1;fill:#ffcc00;fill-opacity:1;stroke:#000000;stroke-width:0;stroke-linecap:square;stroke-linejoin:round;stroke-miterlimit:4;stroke-dasharray:none;stroke-dashoffset:0;stroke-opacity:1;paint-order:normal"
             transform="matrix(1.3161243,0.36292103,-0.3526544,1.3544399,153.79411,-771.58231)" />
          <path
             inkscape:connector-curvature="0"
             id="path4861"
             d="m 52.592781,640.08015 a 126.32466,126.33465 30.03967 0 0 -22.367216,2.00869 25.912751,25.914798 30.039343 0 0 -3.567304,13.03333 25.912751,25.914798 30.039343 0 0 25.876652,25.94908 25.912751,25.914798 30.039343 0 0 25.949827,-25.87944 25.912751,25.914798 30.039343 0 0 -3.495677,-12.97098 126.32466,126.33465 30.03967 0 0 -22.396282,-2.14068 z"
             style="display:inline;opacity:1;fill:#ffffff;fill-opacity:1;stroke:#000000;stroke-width:0;stroke-linecap:square;stroke-linejoin:round;stroke-miterlimit:4;stroke-dasharray:none;stroke-dashoffset:0;stroke-opacity:1;paint-order:normal"
             transform="matrix(1.3161243,0.36292103,-0.3526544,1.3544399,153.79411,-771.58231)" />
          <g
             id="g4871"
             transform="matrix(1.1755431,0.67870012,-0.67870012,1.1755431,312.5188,-540.19824)"
             style="opacity:1;fill:#000000;stroke:#000000;stroke-width:0.264583;stroke-miterlimit:4;stroke-dasharray:none">
            <g
               id="g4869"
               style="fill:#000000;stroke:#000000;stroke-width:0.264583;stroke-miterlimit:4;stroke-dasharray:none"
               transform="matrix(1.0226024,0,0,1.0226024,81.412928,-73.608774)">
              <g
                 id="g4867"
                 transform="rotate(-15,-66.775369,920.4571)"
                 style="fill:#000000;stroke:#000000;stroke-width:0.264583;stroke-miterlimit:4;stroke-dasharray:none">
                <path
                   sodipodi:nodetypes="ccsccsccccccscccsc"
                   inkscape:connector-curvature="0"
                   id="path4863"
                   transform="matrix(0.26458334,0,0,0.26458334,-74.938999,84.659172)"
                   d="m 598.73882,2012.2956 c 0.47856,12.2566 2.80455,27.1086 2.89204,38.013 -0.0117,84.3318 -68.16344,152.4785 -152.49805,152.4785 -84.33793,0 -152.49362,-68.1519 -152.5,-152.4883 0.0174,-7.3519 1.36593,-30.7378 2.45092,-38.0032 0.66089,-2.4665 -5.88807,-1.1552 -11.1169,0 -4.39623,0.9712 -7.76659,3.2916 -8.52935,7.3862 -0.037,0.2026 -0.0731,0.4065 -0.10938,0.6094 l -0.002,0.01 c -0.0113,0.064 -0.0245,0.1363 -0.0391,0.2187 -1.74264,9.8189 -2.63141,19.7721 -2.6543,29.7481 -10e-6,0.01 -10e-6,0.016 0,0.023 0,95.1507 77.34933,172.5 172.5,172.5 95.15067,0 172.5,-77.3493 172.5,-172.5 3e-5,-0.014 3e-5,-0.029 0,-0.043 -0.0463,-10.9779 0.24574,-17.9978 -1.88137,-28.7677 -0.68695,-3.4759 -4.47709,-7.7034 -8.35413,-9.1847 -3.87704,-1.4813 -11.57087,-2.8734 -12.65838,0 z"
                   style="color:#000000;font-style:normal;font-variant:normal;font-weight:normal;font-stretch:normal;font-size:medium;line-height:normal;font-family:sans-serif;font-variant-ligatures:normal;font-variant-position:normal;font-variant-caps:normal;font-variant-numeric:normal;font-variant-alternates:normal;font-feature-settings:normal;text-indent:0;text-align:start;text-decoration:none;text-decoration-line:none;text-decoration-style:solid;text-decoration-color:#000000;letter-spacing:normal;word-spacing:normal;text-transform:none;writing-mode:lr-tb;direction:ltr;text-orientation:mixed;dominant-baseline:auto;baseline-shift:baseline;text-anchor:start;white-space:normal;shape-padding:0;clip-rule:nonzero;display:inline;overflow:visible;visibility:visible;opacity:0.866;isolation:auto;mix-blend-mode:normal;color-interpolation:sRGB;color-interpolation-filters:linearRGB;solid-color:#000000;solid-opacity:1;vector-effect:none;fill:#000000;fill-opacity:1;fill-rule:nonzero;stroke:#000000;stroke-width:1;stroke-linecap:square;stroke-linejoin:round;stroke-miterlimit:4;stroke-dasharray:none;stroke-dashoffset:0;stroke-opacity:1;paint-order:normal;color-rendering:auto;image-rendering:auto;shape-rendering:auto;text-rendering:auto;enable-background:accumulate" />
                <path
                   id="path4865"
                   transform="matrix(0.26458334,0,0,0.26458334,-74.938999,84.659172)"
                   d="m 449.13281,1992.1074 a 487.49999,487.49999 0 0 0 -86.30469,7.8672 100,100 0 0 0 -13.69531,50.3125 100,100 0 0 0 42.96094,81.9961 l 84.01172,-138.9902 a 487.49999,487.49999 0 0 0 -26.97266,-1.1856 z m 49.1543,3.1504 -88.69727,146.752 a 100,100 0 0 0 39.54297,8.2773 100,100 0 0 0 100,-100 100,100 0 0 0 -13.56054,-50.0351 487.49999,487.49999 0 0 0 -37.28516,-4.9942 z"
                   style="opacity:1;fill:#000000;fill-opacity:1;stroke:#000000;stroke-width:1;stroke-linecap:square;stroke-linejoin:round;stroke-miterlimit:4;stroke-dasharray:none;stroke-dashoffset:0;stroke-opacity:1;paint-order:normal"
                   inkscape:connector-curvature="0" />
              </g>
            </g>
          </g>
        </g>
      </g>
      <g
         id="g956"
         transform="translate(2.664903,-147.23589)">
        <g
           id="g932"
           style="display:inline;opacity:1"
           transform="matrix(3.3312036,0,0,3.3312036,469.1034,-2243.731)">
          <g
             id="g930">
            <g
               aria-label="ChumTech"
               style="font-style:normal;font-variant:normal;font-weight:normal;font-stretch:normal;font-size:16.9333px;line-height:1.25;font-family:'Corporate Logo Maru';-inkscape-font-specification:'Corporate Logo Maru';letter-spacing:-0.267229px;word-spacing:-0.407458px;fill:#000000;fill-opacity:1;stroke:none;stroke-width:0.264583"
               id="g920"
               transform="translate(-68.952458,12.95915)">
              <g
                 id="g918"
                 transform="translate(66.507335,3.1786594)">
                <g
                   id="g916">
                  <path
                     inkscape:connector-curvature="0"
                     d="m -162.46142,593.22429 q 0,2.25723 1.06109,3.51124 1.08039,1.23472 2.8553,1.23472 1.58199,0 3.39549,-0.63665 v 2.85529 q -1.79421,0.44373 -3.80063,0.44373 -3.24115,0 -5.09323,-1.90996 -1.85209,-1.90996 -1.85209,-5.49837 0,-3.51124 1.79421,-5.45979 1.7942,-1.94854 5.01606,-1.94854 2.08359,0 3.76204,0.46302 v 2.87458 q -1.83279,-0.61736 -3.3569,-0.61736 -1.7942,0 -2.79742,1.19614 -0.98392,1.19614 -0.98392,3.49195 z"
                     style="font-style:normal;font-variant:normal;font-weight:normal;font-stretch:normal;font-size:19.7556px;font-family:'Corporate Logo Bold';-inkscape-font-specification:'Corporate Logo Bold, ';letter-spacing:-0.267229px;word-spacing:-0.407458px;stroke-width:0.264583"
                     id="path902" />
                  <path
                     inkscape:connector-curvature="0"
                     d="m -150.1275,585.62303 v 5.63342 h 0.0386 q 1.40836,-1.2926 2.97105,-1.2926 1.8135,0 2.60449,1.0418 0.791,1.04179 0.791,3.70416 v 5.72989 h -3.1061 v -5.32474 q 0,-1.58199 -0.30868,-2.10289 -0.30868,-0.5209 -1.15755,-0.5209 -0.67524,0 -1.25402,0.59807 -0.57877,0.57878 -0.57877,1.23472 v 6.11574 h -3.20256 v -14.81667 z"
                     style="font-style:normal;font-variant:normal;font-weight:normal;font-stretch:normal;font-size:19.7556px;font-family:'Corporate Logo Bold';-inkscape-font-specification:'Corporate Logo Bold, ';letter-spacing:-0.267229px;word-spacing:-0.407458px;stroke-width:0.264583"
                     id="path904" />
                  <path
                     inkscape:connector-curvature="0"
                     d="m -141.57804,590.17607 h 3.10609 v 5.96139 q 0,1.13826 0.30868,1.5627 0.32798,0.42443 1.08039,0.42443 0.69453,0 1.25401,-0.55948 0.57878,-0.55948 0.57878,-1.21543 v -6.17361 h 3.20256 v 10.26363 h -3.04822 l -0.0386,-1.3119 h -0.0386 q -1.27331,1.50482 -3.1061,1.50482 -1.73633,0 -2.52732,-0.96462 -0.7717,-0.96463 -0.7717,-3.31832 z"
                     style="font-style:normal;font-variant:normal;font-weight:normal;font-stretch:normal;font-size:19.7556px;font-family:'Corporate Logo Bold';-inkscape-font-specification:'Corporate Logo Bold, ';letter-spacing:-0.267229px;word-spacing:-0.407458px;stroke-width:0.264583"
                     id="path906" />
                  <path
                     inkscape:connector-curvature="0"
                     d="m -129.69098,590.17607 h 2.95176 l 0.0772,1.31189 h 0.0386 q 1.17684,-1.52411 2.70095,-1.52411 0.90675,0 1.44694,0.34727 0.54019,0.32797 1.00321,1.17684 h 0.0386 q 1.36977,-1.52411 2.85529,-1.52411 1.67845,0 2.43086,0.90675 0.75241,0.88746 0.75241,3.04822 v 6.52088 h -3.12539 v -6.32795 q 0,-1.06109 -0.23151,-1.40836 -0.23151,-0.34727 -0.88746,-0.34727 -0.46302,0 -0.88745,0.38586 -0.42444,0.36655 -0.42444,0.73311 v 6.96461 h -3.12539 v -6.32795 q 0,-1.06109 -0.23151,-1.40836 -0.21222,-0.34727 -0.86816,-0.34727 -0.44373,0 -0.88746,0.38586 -0.44373,0.36655 -0.44373,0.73311 v 6.96461 h -3.18327 z"
                     style="font-style:normal;font-variant:normal;font-weight:normal;font-stretch:normal;font-size:19.7556px;font-family:'Corporate Logo Bold';-inkscape-font-specification:'Corporate Logo Bold, ';letter-spacing:-0.267229px;word-spacing:-0.407458px;stroke-width:0.264583"
                     id="path908" />
                  <path
                     inkscape:connector-curvature="0"
                     d="m -104.56988,586.00888 v 2.79742 h -3.81992 v 11.6334 h -3.43407 v -11.6334 h -3.81993 v -2.79742 z"
                     style="font-style:normal;font-variant:normal;font-weight:normal;font-stretch:normal;font-size:19.7556px;font-family:'Corporate Logo Bold';-inkscape-font-specification:'Corporate Logo Bold, ';letter-spacing:-0.267229px;word-spacing:-0.407458px;stroke-width:0.264583"
                     id="path910" />
                  <path
                     inkscape:connector-curvature="0"
                     d="m -94.213511,595.30788 q 0,-2.5852 1.311893,-3.95497 1.311892,-1.38906 3.762044,-1.38906 1.678451,0 3.260439,0.36656 v 2.45015 q -1.446941,-0.42444 -2.758833,-0.42444 -1.13826,0 -1.678451,0.71383 -0.54019,0.69453 -0.54019,2.23793 0,1.58199 0.578776,2.25723 0.578776,0.67524 1.83279,0.67524 1.311893,0 2.720248,-0.42444 v 2.43086 q -1.620573,0.38585 -3.221854,0.38585 -2.546614,0 -3.916384,-1.33118 -1.350478,-1.35048 -1.350478,-3.99356 z"
                     style="font-style:normal;font-variant:normal;font-weight:normal;font-stretch:normal;font-size:19.7556px;font-family:'Corporate Logo Bold';-inkscape-font-specification:'Corporate Logo Bold, ';letter-spacing:-0.267229px;word-spacing:-0.407458px;stroke-width:0.264583"
                     id="path912" />
                  <path
                     inkscape:connector-curvature="0"
                     d="m -80.816384,585.62303 v 5.63342 h 0.03858 q 1.408355,-1.2926 2.971051,-1.2926 1.813498,0 2.604492,1.0418 0.790994,1.04179 0.790994,3.70416 v 5.72989 h -3.106098 v -5.32474 q 0,-1.58199 -0.308681,-2.10289 -0.30868,-0.5209 -1.157552,-0.5209 -0.675239,0 -1.254015,0.59807 -0.578776,0.57878 -0.578776,1.23472 v 6.11574 h -3.202561 v -14.81667 z"
                     style="font-style:normal;font-variant:normal;font-weight:normal;font-stretch:normal;font-size:19.7556px;font-family:'Corporate Logo Bold';-inkscape-font-specification:'Corporate Logo Bold, ';letter-spacing:-0.267229px;word-spacing:-0.407458px;stroke-width:0.264583"
                     id="path914" />
                </g>
              </g>
            </g>
            <g
               id="g928"
               transform="translate(51.592087,52.814648)">
              <g
                 style="font-style:normal;font-variant:normal;font-weight:normal;font-stretch:normal;font-size:16.9333px;line-height:1.25;font-family:'Corporate Logo Maru';-inkscape-font-specification:'Corporate Logo Maru';letter-spacing:-0.267229px;word-spacing:-0.407458px;display:inline;opacity:1;fill:#000000;fill-opacity:1;stroke:none;stroke-width:0.264583"
                 id="g926"
                 transform="translate(-42.455779,-9.4693465)">
                <g
                   id="g924"
                   transform="rotate(60,-112.86352,567.84176)">
                  <path
                     style="opacity:1;fill:#000000;fill-opacity:1;stroke:none;stroke-width:2.79941;stroke-linecap:square;stroke-linejoin:round;stroke-miterlimit:4;stroke-dasharray:none;stroke-dashoffset:0;stroke-opacity:1;paint-order:normal"
                     d="m -116.66815,562.35374 c -1.11405,0.62152 -1.80893,1.7685 -2.08438,3.44048 -0.2655,1.61171 -0.0113,2.91801 0.76239,3.9188 0.76096,0.99867 1.99177,1.63794 3.69233,1.91805 1.71324,0.28224 3.09873,0.0219 4.15657,-0.78151 1.04512,-0.80548 1.71364,-2.09668 2.00631,-3.87336 0.17768,-1.07872 0.21272,-2.23947 0.10467,-3.48257 l -2.26515,-0.37315 c 0.16317,1.30431 0.18527,2.31808 0.0661,3.04144 -0.15258,0.92644 -0.43081,1.58464 -0.83398,1.97444 -0.41584,0.38771 -1.01783,0.56207 -1.8066,0.52335 l 1.06894,-6.49117 c -0.35967,-0.11138 -0.67231,-0.18946 -0.9389,-0.23304 -1.63591,-0.26948 -2.94534,-0.13014 -3.92833,0.41822 z m 0.77307,1.75136 c 0,0 1.23258,0.15203 1.6474,0.55378 0.41462,0.40189 0.47134,1.33225 0.40712,1.72215 -0.069,0.41908 -0.37505,1.35915 -0.91389,1.60349 -0.56765,0.27839 -1.62318,0.0194 -1.62318,0.0194 0.0185,-0.1123 0.0496,-0.37269 0.0812,-0.63763 a 1.3550419,1.3550419 0 0 0 1.25384,-0.0514 1.3550419,1.3550419 0 0 0 0.49595,-1.85089 1.3550419,1.3550419 0 0 0 -1.45367,-0.64715 c 0.0444,-0.35735 0.0822,-0.62976 0.1052,-0.71175 z"
                     id="path922"
                     inkscape:connector-curvature="0" />
                </g>
              </g>
            </g>
          </g>
        </g>
        <g
           transform="matrix(1.9805854,0,0,1.9805854,59.666151,-578.85789)"
           id="g954"
           style="display:inline;opacity:1;fill:#ffffff;stroke:#000000;stroke-width:5.29167;stroke-miterlimit:4;stroke-dasharray:none">
          <g
             style="opacity:0.607;fill:#c8ab37;stroke:#000000;stroke-width:0;stroke-miterlimit:4;stroke-dasharray:none"
             transform="matrix(1.3161243,0.36292103,-0.3526544,1.3544399,349.43796,-316.62224)"
             id="g936">
            <g
               id="g934"
               transform="translate(-222.66942,-276.23866)" />
          </g>
          <g
             transform="matrix(0.3273828,0,0,0.3273828,-97.736032,134.24276)"
             id="g952">
            <path
               sodipodi:nodetypes="cssccssscsccc"
               inkscape:connector-curvature="0"
               id="path938"
               d="m 51.943262,640.38422 c -14.557177,0.22732 -29.003505,2.78419 -42.7678103,7.56761 -0.035857,0.0123 -0.075863,0.0265 -0.1185982,0.0413 -0.3230641,0.11294 -0.8009992,0.2819 -0.8009992,0.2819 v 0 c -0.034353,0.17368 -0.067627,0.34757 -0.099817,0.52158 -0.00949,0.0512 -0.018887,0.1026 -0.028192,0.15397 -0.00349,0.0197 -0.00698,0.0386 -0.010416,0.0578 -0.4473533,2.48771 -0.6741686,5.00676 -0.677652,7.52885 0.023143,24.08474 19.9735077,43.36765 44.5603937,43.06954 24.586888,-0.29802 44.49974,-20.06424 44.476598,-44.14895 -0.01461,-2.77516 -0.299643,-5.53955 -0.851224,-8.25562 -14.043755,-4.64427 -28.807703,-6.94868 -43.68227,-6.81799 z"
               style="display:inline;opacity:1;fill:#ffcc00;fill-opacity:1;stroke:#000000;stroke-width:0;stroke-linecap:square;stroke-linejoin:round;stroke-miterlimit:4;stroke-dasharray:none;stroke-dashoffset:0;stroke-opacity:1;paint-order:normal"
               transform="matrix(1.3161243,0.36292103,-0.3526544,1.3544399,153.79411,-771.58231)" />
            <path
               inkscape:connector-curvature="0"
               id="path940"
               d="m 52.592781,640.08015 a 126.32466,126.33465 30.03967 0 0 -22.367216,2.00869 25.912751,25.914798 30.039343 0 0 -3.567304,13.03333 25.912751,25.914798 30.039343 0 0 25.876652,25.94908 25.912751,25.914798 30.039343 0 0 25.949827,-25.87944 25.912751,25.914798 30.039343 0 0 -3.495677,-12.97098 126.32466,126.33465 30.03967 0 0 -22.396282,-2.14068 z"
               style="display:inline;opacity:1;fill:#ffffff;fill-opacity:1;stroke:#000000;stroke-width:0;stroke-linecap:square;stroke-linejoin:round;stroke-miterlimit:4;stroke-dasharray:none;stroke-dashoffset:0;stroke-opacity:1;paint-order:normal"
               transform="matrix(1.3161243,0.36292103,-0.3526544,1.3544399,153.79411,-771.58231)" />
            <g
               id="g950"
               transform="matrix(1.1755431,0.67870012,-0.67870012,1.1755431,312.5188,-540.19824)"
               style="opacity:1;fill:#000000;stroke:#000000;stroke-width:0.264583;stroke-miterlimit:4;stroke-dasharray:none">
              <g
                 id="g948"
                 style="fill:#000000;stroke:#000000;stroke-width:0.264583;stroke-miterlimit:4;stroke-dasharray:none"
                 transform="matrix(1.0226024,0,0,1.0226024,81.412928,-73.608774)">
                <g
                   id="g946"
                   transform="rotate(-15,-66.775369,920.4571)"
                   style="fill:#000000;stroke:#000000;stroke-width:0.264583;stroke-miterlimit:4;stroke-dasharray:none">
                  <path
                     sodipodi:nodetypes="ccsccsccccccscccsc"
                     inkscape:connector-curvature="0"
                     id="path942"
                     transform="matrix(0.26458334,0,0,0.26458334,-74.938999,84.659172)"
                     d="m 598.73882,2012.2956 c 0.47856,12.2566 2.80455,27.1086 2.89204,38.013 -0.0117,84.3318 -68.16344,152.4785 -152.49805,152.4785 -84.33793,0 -152.49362,-68.1519 -152.5,-152.4883 0.0174,-7.3519 1.36593,-30.7378 2.45092,-38.0032 0.66089,-2.4665 -5.88807,-1.1552 -11.1169,0 -4.39623,0.9712 -7.76659,3.2916 -8.52935,7.3862 -0.037,0.2026 -0.0731,0.4065 -0.10938,0.6094 l -0.002,0.01 c -0.0113,0.064 -0.0245,0.1363 -0.0391,0.2187 -1.74264,9.8189 -2.63141,19.7721 -2.6543,29.7481 -10e-6,0.01 -10e-6,0.016 0,0.023 0,95.1507 77.34933,172.5 172.5,172.5 95.15067,0 172.5,-77.3493 172.5,-172.5 3e-5,-0.014 3e-5,-0.029 0,-0.043 -0.0463,-10.9779 0.24574,-17.9978 -1.88137,-28.7677 -0.68695,-3.4759 -4.47709,-7.7034 -8.35413,-9.1847 -3.87704,-1.4813 -11.57087,-2.8734 -12.65838,0 z"
                     style="color:#000000;font-style:normal;font-variant:normal;font-weight:normal;font-stretch:normal;font-size:medium;line-height:normal;font-family:sans-serif;font-variant-ligatures:normal;font-variant-position:normal;font-variant-caps:normal;font-variant-numeric:normal;font-variant-alternates:normal;font-feature-settings:normal;text-indent:0;text-align:start;text-decoration:none;text-decoration-line:none;text-decoration-style:solid;text-decoration-color:#000000;letter-spacing:normal;word-spacing:normal;text-transform:none;writing-mode:lr-tb;direction:ltr;text-orientation:mixed;dominant-baseline:auto;baseline-shift:baseline;text-anchor:start;white-space:normal;shape-padding:0;clip-rule:nonzero;display:inline;overflow:visible;visibility:visible;opacity:0.866;isolation:auto;mix-blend-mode:normal;color-interpolation:sRGB;color-interpolation-filters:linearRGB;solid-color:#000000;solid-opacity:1;vector-effect:none;fill:#000000;fill-opacity:1;fill-rule:nonzero;stroke:#000000;stroke-width:1;stroke-linecap:square;stroke-linejoin:round;stroke-miterlimit:4;stroke-dasharray:none;stroke-dashoffset:0;stroke-opacity:1;paint-order:normal;color-rendering:auto;image-rendering:auto;shape-rendering:auto;text-rendering:auto;enable-background:accumulate" />
                  <path
                     id="path944"
                     transform="matrix(0.26458334,0,0,0.26458334,-74.938999,84.659172)"
                     d="m 449.13281,1992.1074 a 487.49999,487.49999 0 0 0 -86.30469,7.8672 100,100 0 0 0 -13.69531,50.3125 100,100 0 0 0 42.96094,81.9961 l 84.01172,-138.9902 a 487.49999,487.49999 0 0 0 -26.97266,-1.1856 z m 49.1543,3.1504 -88.69727,146.752 a 100,100 0 0 0 39.54297,8.2773 100,100 0 0 0 100,-100 100,100 0 0 0 -13.56054,-50.0351 487.49999,487.49999 0 0 0 -37.28516,-4.9942 z"
                     style="opacity:1;fill:#000000;fill-opacity:1;stroke:#000000;stroke-width:1;stroke-linecap:square;stroke-linejoin:round;stroke-miterlimit:4;stroke-dasharray:none;stroke-dashoffset:0;stroke-opacity:1;paint-order:normal"
                     inkscape:connector-curvature="0" />
                </g>
              </g>
            </g>
          </g>
        </g>
      </g>
      <g
         id="g1188"
         transform="matrix(0.67126284,0,0,0.67126284,-307.88456,-496.37194)"
         style="display:inline;fill:#ffffff;stroke:#000000;stroke-width:5.29167;stroke-miterlimit:4;stroke-dasharray:none">
        <g
           id="g1186"
           transform="translate(137.25564,273.12487)">
          <circle
             style="opacity:1;fill:#000000;fill-opacity:1;stroke:none;stroke-width:9.36893;stroke-linecap:round;stroke-linejoin:round;stroke-miterlimit:4;stroke-dasharray:none;stroke-dashoffset:0;stroke-opacity:1;paint-order:normal"
             id="circle1165"
             cx="81.206139"
             cy="152.46658"
             r="65.024002" />
          <g
             id="g1184"
             transform="translate(89.595769,12.093424)">
            <path
               sodipodi:nodetypes="cssccssscsccc"
               inkscape:connector-curvature="0"
               id="path1167"
               d="m 51.943262,640.38422 c -14.557177,0.22732 -29.003505,2.78419 -42.7678103,7.56761 -0.035857,0.0123 -0.075863,0.0265 -0.1185982,0.0413 -0.3230641,0.11294 -0.8009992,0.2819 -0.8009992,0.2819 v 0 c -0.034353,0.17368 -0.067627,0.34757 -0.099817,0.52158 -0.00949,0.0512 -0.018887,0.1026 -0.028192,0.15397 -0.00349,0.0197 -0.00698,0.0386 -0.010416,0.0578 -0.4473533,2.48771 -0.6741686,5.00676 -0.677652,7.52885 0.023143,24.08474 19.9735077,43.36765 44.5603937,43.06954 24.586888,-0.29802 44.49974,-20.06424 44.476598,-44.14895 -0.01461,-2.77516 -0.299643,-5.53955 -0.851224,-8.25562 -14.043755,-4.64427 -28.807703,-6.94868 -43.68227,-6.81799 z"
               style="display:inline;opacity:1;fill:#ffcc00;fill-opacity:1;stroke:#000000;stroke-width:0;stroke-linecap:square;stroke-linejoin:round;stroke-miterlimit:4;stroke-dasharray:none;stroke-dashoffset:0;stroke-opacity:1;paint-order:normal"
               transform="matrix(1.3161243,0.36292103,-0.3526544,1.3544399,153.79411,-771.58231)" />
            <path
               inkscape:connector-curvature="0"
               id="path1169"
               d="m 52.592781,640.08015 a 126.32466,126.33465 30.03967 0 0 -22.367216,2.00869 25.912751,25.914798 30.039343 0 0 -3.567304,13.03333 25.912751,25.914798 30.039343 0 0 25.876652,25.94908 25.912751,25.914798 30.039343 0 0 25.949827,-25.87944 25.912751,25.914798 30.039343 0 0 -3.495677,-12.97098 126.32466,126.33465 30.03967 0 0 -22.396282,-2.14068 z"
               style="display:inline;opacity:1;fill:#ffffff;fill-opacity:1;stroke:#000000;stroke-width:0;stroke-linecap:square;stroke-linejoin:round;stroke-miterlimit:4;stroke-dasharray:none;stroke-dashoffset:0;stroke-opacity:1;paint-order:normal"
               transform="matrix(1.3161243,0.36292103,-0.3526544,1.3544399,153.79411,-771.58231)" />
            <g
               id="g1182"
               transform="matrix(1.1755431,0.67870012,-0.67870012,1.1755431,312.5188,-540.19824)"
               style="opacity:1;fill:#000000;stroke:#000000;stroke-width:0.264583;stroke-miterlimit:4;stroke-dasharray:none">
              <g
                 id="g1180"
                 style="fill:#000000;stroke:#000000;stroke-width:0.264583;stroke-miterlimit:4;stroke-dasharray:none"
                 transform="matrix(1.0226024,0,0,1.0226024,81.412928,-73.608774)">
                <g
                   id="g1178"
                   transform="rotate(-15,-66.775369,920.4571)"
                   style="fill:#000000;stroke:#000000;stroke-width:0.264583;stroke-miterlimit:4;stroke-dasharray:none">
                  <path
                     sodipodi:nodetypes="ccsccsccccccscccsc"
                     inkscape:connector-curvature="0"
                     id="path1171"
                     transform="matrix(0.26458334,0,0,0.26458334,-74.938999,84.659172)"
                     d="m 598.73882,2012.2956 c 0.47856,12.2566 2.80455,27.1086 2.89204,38.013 -0.0117,84.3318 -68.16344,152.4785 -152.49805,152.4785 -84.33793,0 -152.49362,-68.1519 -152.5,-152.4883 0.0174,-7.3519 1.36593,-30.7378 2.45092,-38.0032 0.66089,-2.4665 -5.88807,-1.1552 -11.1169,0 -4.39623,0.9712 -7.76659,3.2916 -8.52935,7.3862 -0.037,0.2026 -0.0731,0.4065 -0.10938,0.6094 l -0.002,0.01 c -0.0113,0.064 -0.0245,0.1363 -0.0391,0.2187 -1.74264,9.8189 -2.63141,19.7721 -2.6543,29.7481 -10e-6,0.01 -10e-6,0.016 0,0.023 0,95.1507 77.34933,172.5 172.5,172.5 95.15067,0 172.5,-77.3493 172.5,-172.5 3e-5,-0.014 3e-5,-0.029 0,-0.043 -0.0463,-10.9779 0.24574,-17.9978 -1.88137,-28.7677 -0.68695,-3.4759 -4.47709,-7.7034 -8.35413,-9.1847 -3.87704,-1.4813 -11.57087,-2.8734 -12.65838,0 z"
                     style="color:#000000;font-style:normal;font-variant:normal;font-weight:normal;font-stretch:normal;font-size:medium;line-height:normal;font-family:sans-serif;font-variant-ligatures:normal;font-variant-position:normal;font-variant-caps:normal;font-variant-numeric:normal;font-variant-alternates:normal;font-feature-settings:normal;text-indent:0;text-align:start;text-decoration:none;text-decoration-line:none;text-decoration-style:solid;text-decoration-color:#000000;letter-spacing:normal;word-spacing:normal;text-transform:none;writing-mode:lr-tb;direction:ltr;text-orientation:mixed;dominant-baseline:auto;baseline-shift:baseline;text-anchor:start;white-space:normal;shape-padding:0;clip-rule:nonzero;display:inline;overflow:visible;visibility:visible;opacity:0.866;isolation:auto;mix-blend-mode:normal;color-interpolation:sRGB;color-interpolation-filters:linearRGB;solid-color:#000000;solid-opacity:1;vector-effect:none;fill:#000000;fill-opacity:1;fill-rule:nonzero;stroke:#000000;stroke-width:1;stroke-linecap:square;stroke-linejoin:round;stroke-miterlimit:4;stroke-dasharray:none;stroke-dashoffset:0;stroke-opacity:1;paint-order:normal;color-rendering:auto;image-rendering:auto;shape-rendering:auto;text-rendering:auto;enable-background:accumulate" />
                  <path
                     id="path1173"
                     transform="matrix(0.26458334,0,0,0.26458334,-74.938999,84.659172)"
                     d="m 449.13281,1992.1074 a 487.49999,487.49999 0 0 0 -86.30469,7.8672 100,100 0 0 0 -13.69531,50.3125 100,100 0 0 0 42.96094,81.9961 l 84.01172,-138.9902 a 487.49999,487.49999 0 0 0 -26.97266,-1.1856 z m 49.1543,3.1504 -88.69727,146.752 a 100,100 0 0 0 39.54297,8.2773 100,100 0 0 0 100,-100 100,100 0 0 0 -13.56054,-50.0351 487.49999,487.49999 0 0 0 -37.28516,-4.9942 z"
                     style="opacity:1;fill:#000000;fill-opacity:1;stroke:#000000;stroke-width:1;stroke-linecap:square;stroke-linejoin:round;stroke-miterlimit:4;stroke-dasharray:none;stroke-dashoffset:0;stroke-opacity:1;paint-order:normal"
                     inkscape:connector-curvature="0" />
                  <path
                     style="color:#000000;font-style:normal;font-variant:normal;font-weight:normal;font-stretch:normal;font-size:medium;line-height:normal;font-family:sans-serif;font-variant-ligatures:normal;font-variant-position:normal;font-variant-caps:normal;font-variant-numeric:normal;font-variant-alternates:normal;font-feature-settings:normal;text-indent:0;text-align:start;text-decoration:none;text-decoration-line:none;text-decoration-style:solid;text-decoration-color:#000000;letter-spacing:normal;word-spacing:normal;text-transform:none;writing-mode:lr-tb;direction:ltr;text-orientation:mixed;dominant-baseline:auto;baseline-shift:baseline;text-anchor:start;white-space:normal;shape-padding:0;clip-rule:nonzero;display:inline;overflow:visible;visibility:visible;opacity:0.866;isolation:auto;mix-blend-mode:normal;color-interpolation:sRGB;color-interpolation-filters:linearRGB;solid-color:#000000;solid-opacity:1;vector-effect:none;fill:#000000;fill-opacity:1;fill-rule:nonzero;stroke:#000000;stroke-width:1;stroke-linecap:square;stroke-linejoin:round;stroke-miterlimit:4;stroke-dasharray:none;stroke-dashoffset:0;stroke-opacity:1;paint-order:normal;color-rendering:auto;image-rendering:auto;shape-rendering:auto;text-rendering:auto;enable-background:accumulate"
                     d="m 598.73882,2012.2956 c 0.47856,12.2566 2.80455,27.1086 2.89204,38.013 -0.0117,84.3318 -68.16344,152.4785 -152.49805,152.4785 -84.33793,0 -152.49362,-68.1519 -152.5,-152.4883 0.0174,-7.3519 1.36593,-30.7378 2.45092,-38.0032 0.66089,-2.4665 -5.88807,-1.1552 -11.1169,0 -4.39623,0.9712 -7.76659,3.2916 -8.52935,7.3862 -0.037,0.2026 -0.0731,0.4065 -0.10938,0.6094 l -0.002,0.01 c -0.0113,0.064 -0.0245,0.1363 -0.0391,0.2187 -1.74264,9.8189 -2.63141,19.7721 -2.6543,29.7481 -10e-6,0.01 -10e-6,0.016 0,0.023 0,95.1507 77.34933,172.5 172.5,172.5 95.15067,0 172.5,-77.3493 172.5,-172.5 3e-5,-0.014 3e-5,-0.029 0,-0.043 -0.0463,-10.9779 0.24574,-17.9978 -1.88137,-28.7677 -0.68695,-3.4759 -4.47709,-7.7034 -8.35413,-9.1847 -3.87704,-1.4813 -11.57087,-2.8734 -12.65838,0 z"
                     transform="matrix(0.26458334,0,0,0.26458334,-74.938999,84.659172)"
                     id="path1176"
                     inkscape:connector-curvature="0"
                     sodipodi:nodetypes="ccsccsccccccscccsc" />
                </g>
              </g>
            </g>
          </g>
        </g>
      </g>
    </g>
  </g>
</svg>
